<svg xmlns="http://www.w3.org/2000/svg" viewBox="0 0 240 320" role="img" aria-labelledby="title desc">
  <title id="title">Rocket</title>
  <desc id="desc">Stylized rocket flying upward</desc>
  <defs>
    <linearGradient id="body" x1="0" x2="1" y1="0" y2="1">
      <stop offset="0" stop-color="#f9fafb"/>
      <stop offset="1" stop-color="#d1d5db"/>
    </linearGradient>
    <linearGradient id="accent" x1="0" x2="1" y1="0" y2="1">
      <stop offset="0" stop-color="#fb7185"/>
      <stop offset="1" stop-color="#f43f5e"/>
    </linearGradient>
    <linearGradient id="flame" x1="0" x2="0" y1="0" y2="1">
      <stop offset="0" stop-color="#fef08a"/>
      <stop offset="0.55" stop-color="#f59e0b"/>
      <stop offset="1" stop-color="#f97316"/>
    </linearGradient>
  </defs>

  <ellipse cx="120" cy="280" rx="62" ry="14" fill="#0f172a" opacity="0.2"/>

  <g transform="translate(32,20)">
    <path d="M88 0C129 43 141 98 141 145V189H35V145C35 98 47 43 88 0Z" fill="url(#body)" stroke="#334155" stroke-width="4"/>

    <circle cx="88" cy="88" r="27" fill="#0f172a" stroke="#94a3b8" stroke-width="4"/>
    <circle cx="88" cy="88" r="13" fill="#38bdf8"/>

    <path d="M35 189L6 231L54 218L70 189Z" fill="url(#accent)" stroke="#881337" stroke-width="4"/>
    <path d="M141 189L170 231L122 218L106 189Z" fill="url(#accent)" stroke="#881337" stroke-width="4"/>

    <rect x="71" y="189" width="34" height="38" rx="8" fill="#ef4444" stroke="#7f1d1d" stroke-width="4"/>

    <path d="M88 227C107 248 108 274 88 296C68 274 69 248 88 227Z" fill="url(#flame)"/>
    <path d="M88 240C98 254 98 270 88 284C78 270 78 254 88 240Z" fill="#fef3c7" opacity="0.8"/>
  </g>
</svg>
